<?xml version="1.0" encoding="utf-8"?>
<!-- Generator: Adobe Illustrator 19.2.1, SVG Export Plug-In . SVG Version: 6.00 Build 0)  -->
<svg version="1.1" id="图层_1" xmlns="http://www.w3.org/2000/svg" xmlns:xlink="http://www.w3.org/1999/xlink" x="0px" y="0px"
	 viewBox="0 0 1536 2048" style="enable-background:new 0 0 1536 2048;" xml:space="preserve">
<style type="text/css">
	.st0{fill:#232227;}
	.st1{fill:#BABABA;}
</style>
<path class="st0" d="M763.953,795.008c-78.499,0-156.997-0.138-235.496,0.054c-43.598,0.106-79.28,35.414-79.373,78.764
	c-0.217,100.831-0.178,201.663-0.007,302.494c0.059,35.134,24.405,66.235,58.304,75.715c16.054,4.489,32.605,4.238,48.68,2.522
	c44.033-4.702,72.937-38.16,72.939-82.436c0.004-78.999,0.001-157.997-0.002-236.996c0-2,0.065-4.007-0.083-5.997
	c-1.149-15.42-16-26.099-30.965-22.302c-11.661,2.959-18.936,12.692-18.94,25.56c-0.021,77.332,0.03,154.664-0.039,231.996
	c-0.02,22.823-17.695,40.601-40.022,40.607c-22.268,0.006-39.922-17.928-39.929-40.7c-0.027-89.165-0.033-178.33-0.011-267.495
	c0.007-30.138,21.581-51.778,51.635-51.782c142.164-0.02,284.328-0.019,426.492-0.002c30.379,0.004,51.85,21.575,51.856,52.064
	c0.017,85.165,0.014,170.33,0.002,255.495c-0.005,31.111-21.352,52.425-52.492,52.428c-79.499,0.009-158.997,0.003-238.496,0.003
	c-17.666,0-35.333,0.032-52.999-0.014c-6.797-0.018-12.793,2.017-17.839,6.589c-7.666,6.946-10.151,17.711-6.423,27.443
	c3.857,10.067,12.9,15.969,24.756,15.971c104.331,0.017,208.661,0.059,312.992-0.013c45.166-0.031,80.45-35.434,80.483-80.75
	c0.073-99.498,0.015-198.996,0.043-298.495c0.001-5.359-0.434-10.665-1.488-15.897c-7.706-38.229-39.942-64.76-79.082-64.806
	C920.284,794.937,842.119,795.001,763.953,795.008z"/>
<path class="st1" d="M763.953,795.005c78.165-0.003,156.331-0.068,234.496,0.024c39.14,0.046,71.376,26.577,79.082,64.806
	c1.055,5.232,1.49,10.538,1.488,15.897c-0.028,99.498,0.03,198.997-0.043,298.495c-0.033,45.316-35.318,80.719-80.483,80.75
	c-104.331,0.072-208.661,0.03-312.992,0.013c-11.856-0.002-20.9-5.904-24.756-15.971c-3.728-9.732-1.242-20.497,6.423-27.443
	c5.046-4.572,11.043-6.607,17.839-6.589c17.666,0.047,35.333,0.014,52.999,0.014c79.499,0,158.997,0.006,238.496-0.003
	c31.14-0.004,52.488-21.317,52.492-52.428c0.012-85.165,0.015-170.33-0.002-255.495c-0.006-30.489-21.477-52.061-51.856-52.064
	c-142.164-0.017-284.328-0.019-426.492,0.002c-30.054,0.004-51.627,21.644-51.635,51.782c-0.022,89.165-0.017,178.33,0.011,267.495
	c0.007,22.772,17.661,40.706,39.929,40.7c22.327-0.006,40.002-17.784,40.022-40.607c0.068-77.332,0.018-154.664,0.039-231.996
	c0.003-12.868,7.279-22.601,18.94-25.56c14.965-3.797,29.816,6.882,30.965,22.302c0.148,1.99,0.083,3.998,0.083,5.997
	c0.003,78.999,0.005,157.997,0.002,236.996c-0.002,44.276-28.905,77.734-72.939,82.436c-16.074,1.717-32.626,1.967-48.68-2.522
	c-33.899-9.479-58.244-40.581-58.304-75.715c-0.17-100.831-0.209-201.663,0.007-302.494c0.093-43.35,35.775-78.657,79.373-78.764
	C606.956,794.87,685.455,795.008,763.953,795.005z"/>
<path class="st1" d="M828.831,904.999c66.004-0.052,120.103,53.614,120.168,119.205c0.067,67.184-53.51,120.857-120.577,120.795
	c-65.714-0.061-119.406-53.991-119.422-119.954C708.984,958.858,762.694,905.051,828.831,904.999z M898.991,1024.964
	c-0.013-38.617-31.397-69.966-70.028-69.953c-38.615,0.013-69.966,31.398-69.953,70.028c0.014,38.617,31.399,69.968,70.029,69.953
	C867.655,1094.978,899.005,1063.594,898.991,1024.964z"/>
</svg>
